#!OML:ASF E:\Style4\Style4.ASF
:FULLY-SPECIFIED
:DEGREES
2557
root 0.200182 16.772 -0.617139 -4.20778 -4.35238 4.94566
lowerback 16.3389 3.00928 1.01999
upperback 10.2192 4.06546 3.00756
thorax 1.58647 1.99187 1.99012
lowerneck 6.09476 -3.26735 -4.67396
upperneck -6.74825 -5.08162 -3.35242
head -3.21223 -2.26846 -0.0458968
rclavicle -1.35174e-014 2.70347e-014
rhumerus -11.6628 16.1849 -89.3367
rradius 118.458
rwrist 24.8347
rhand 30.8768 -6.99575
rfingers 7.12502
rthumb 54.4935 -25.4945
lclavicle -1.35174e-014 2.70347e-014
lhumerus 13.4851 -12.9043 73.7917
lradius 127.302
lwrist -14.9273
lhand 19.8113 41.8017
lfingers 7.12502
lthumb 44.3593 65.5492
rfemur -21.0703 -1.93034 12.593
rtibia 54.4352
rfoot -25.9029 -15.151
rtoes -17.9247
lfemur -17.552 4.45477 -23.5478
ltibia 50.1152
lfoot -27.3498 10.0513
ltoes -19.3971
2558
root 0.202773 16.7798 -0.609444 -4.29357 -4.63505 4.89048
lowerback 15.8841 2.64457 0.944987
upperback 10.5071 3.55703 2.74406
thorax 2.15983 1.73913 1.86279
lowerneck 6.11632 -2.84283 -4.68998
upperneck -7.09887 -4.50656 -3.02902
head -3.33292 -1.98474 0.0401841
rclavicle 1.11319e-014 -1.59028e-015
rhumerus -11.6142 17.0189 -89.3299
rradius 118.574
rwrist 24.3761
rhand 30.8411 -6.94684
rfingers 7.12502
rthumb 54.4615 -25.468
lclavicle 1.11319e-014 -1.59028e-015
lhumerus 13.5739 -12.4581 74.1814
lradius 126.442
lwrist -15.5633
lhand 19.7602 41.3812
lfingers 7.12502
lthumb 44.3117 65.1468
rfemur -20.9281 -1.83713 12.6528
rtibia 54.2776
rfoot -25.8188 -15.0233
rtoes -17.8501
lfemur -17.3898 4.6281 -23.4706
ltibia 50.0563
lfoot -27.2047 10.2475
ltoes -19.9023
2559
root 0.204989 16.79 -0.600407 -4.32535 -4.87915 4.94128
lowerback 15.8296 2.30998 0.569019
upperback 10.4592 3.07035 2.54402
thorax 2.13998 1.48126 1.93103
lowerneck 6.1069 -2.39263 -4.71653
upperneck -6.98629 -3.88499 -2.86371
head -3.29338 -1.68566 0.0693109
rclavicle -7.95139e-015 -2.70347e-014
rhumerus -12.1057 17.9327 -89.3088
rradius 118.727
rwrist 23.8831
rhand 30.8731 -6.8276
rfingers 7.12502
rthumb 54.4902 -25.3287
lclavicle -7.95139e-015 -2.70347e-014
lhumerus 13.1448 -12.1311 74.958
lradius 125.865
lwrist -16.3182
lhand 20.025 41.3608
lfingers 7.12502
lthumb 44.5584 65.0322
rfemur -20.8192 -1.7574 12.592
rtibia 54.027
rfoot -25.7202 -14.8973
rtoes -17.966
lfemur -17.2397 4.69338 -23.5274
ltibia 49.9285
lfoot -27.1275 10.3246
ltoes -19.8478
2560
root 0.206014 16.8059 -0.593452 -4.27537 -5.07646 4.87446
lowerback 16.3475 1.92618 0.300686
upperback 9.98872 2.54866 2.33214
thorax 1.37683 1.21515 1.90159
lowerneck 6.11067 -1.90184 -4.81701
upperneck -6.44022 -3.19243 -2.63074
head -3.10663 -1.36396 0.127489
rclavicle 2.54444e-014 4.77083e-015
rhumerus -13.2647 18.9349 -89.5101
rradius 119.083
rwrist 23.4299
rhand 31.2194 -7.0201
rfingers 7.12502
rthumb 54.7998 -25.3026
lclavicle 2.54444e-014 4.77083e-015
lhumerus 12.0991 -11.9863 75.7424
lradius 125.4
lwrist -17.011
lhand 20.4965 41.6097
lfingers 7.12502
lthumb 44.9973 65.1103
rfemur -20.7217 -1.70431 12.6746
rtibia 53.6705
rfoot -25.561 -14.8105
rtoes -18.1006
lfemur -17.1565 4.67466 -23.4445
ltibia 49.7654
lfoot -27.103 10.2959
ltoes -19.4121
2561
root 0.206403 16.827 -0.586031 -4.16144 -5.27668 4.54842
lowerback 16.3972 1.54107 0.332702
upperback 9.82137 2.04967 2.2011
thorax 1.19278 0.969569 1.81541
lowerneck 5.98361 -1.47229 -4.95458
upperneck -6.20118 -2.5885 -2.33507
head -3.0019 -1.07965 0.217766
rclavicle -3.97569e-015 9.54166e-015
rhumerus -13.9408 19.7977 -89.4241
rradius 119.545
rwrist 23.028
rhand 31.756 -7.12426
rfingers 7.12502
rthumb 55.2784 -25.0597
lclavicle -3.97569e-015 9.54166e-015
lhumerus 11.4757 -11.7476 76.5126
lradius 124.829
lwrist -17.8433
lhand 20.4372 41.8587
lfingers 7.12502
lthumb 44.9422 65.381
rfemur -20.5719 -1.60678 13.0518
rtibia 53.2245
rfoot -25.4744 -14.6419
rtoes -17.8851
lfemur -17.0954 4.64571 -23.0736
ltibia 49.5661
lfoot -27.0964 10.2566
ltoes -19.019
2562
root 0.206183 16.8512 -0.578676 -4.00499 -5.4748 4.22326
lowerback 16.1305 1.17066 0.343071
upperback 9.85277 1.55869 2.0686
thorax 1.38374 0.725626 1.74953
lowerneck 5.65328 -1.08084 -5.01247
upperneck -6.04414 -2.02213 -2.06644
head -2.89052 -0.813672 0.286466
rclavicle -4.09496e-014 9.54166e-015
rhumerus -14.2416 20.5648 -89.1959
rradius 119.97
rwrist 22.7309
rhand 32.1239 -6.87839
rfingers 7.12502
rthumb 55.6056 -24.5698
lclavicle -4.09496e-014 9.54166e-015
lhumerus 11.1116 -11.4623 77.2789
lradius 124.271
lwrist -18.6629
lhand 20.0226 42.0783
lfingers 7.12502
lthumb 44.5562 65.7506
rfemur -20.4414 -1.49618 13.4293
rtibia 52.7189
rfoot -25.2877 -14.657
rtoes -18.2254
lfemur -17.0501 4.56208 -22.7226
ltibia 49.3229
lfoot -27.0161 10.3773
ltoes -19.1329
